<svg width="143" height="72" viewBox="0 0 143 72" fill="none" xmlns="http://www.w3.org/2000/svg">
<path d="M28.2134 67.5856C30.1432 66.926 31.9714 65.7336 33.6981 64.0085C35.4247 62.334 36.7197 60.2283 37.5831 57.6913C38.0909 56.0676 38.4718 54.1395 38.7257 51.907C38.9796 49.6237 39.1066 46.5539 39.1066 42.6977V7.07822L32.6316 6.01268V0.68499H58.1506V6.01268L52.1327 7.00211V36.3044C52.1327 41.4799 52.0565 45.666 51.9042 48.8626C51.7518 52.0592 51.4471 54.4947 50.9901 56.1691C49.822 60.2791 47.5367 63.7294 44.1342 66.5201C40.7317 69.3108 36.3896 71.1374 31.1081 72L28.2134 67.5856Z" fill="white"/>
<path d="M87.0565 58.0719C78.5248 58.0719 72.2022 55.5095 68.0886 50.3848C63.9751 45.2093 61.9184 38.1057 61.9184 29.074C61.9184 23.2389 62.9848 18.1395 65.1178 13.7759C67.3015 9.36152 70.3485 5.96194 74.2589 3.57717C78.1693 1.19239 82.7399 0 87.9706 0C96.7055 0 103.13 2.43552 107.243 7.30655C111.408 12.1268 113.49 19.0275 113.49 28.0085C113.49 33.945 112.398 39.1966 110.214 43.7632C108.03 48.2791 104.933 51.8055 100.921 54.3425C96.9594 56.8288 92.3381 58.0719 87.0565 58.0719ZM87.7421 5.02325C84.0857 5.02325 81.2417 7.02748 79.2104 11.0359C77.2298 15.0444 76.2395 21.0317 76.2395 28.9979C76.2395 37.1163 77.2298 43.1543 79.2104 47.112C81.191 51.019 84.0095 52.9725 87.6659 52.9725C91.2716 52.9725 94.0647 50.8414 96.0453 46.5793C98.0767 42.2664 99.0924 36.1015 99.0924 28.0846C99.0924 19.9662 98.1275 14.1057 96.1977 10.5032C94.2679 6.84989 91.4494 5.02325 87.7421 5.02325Z" fill="white"/>
<path fill-rule="evenodd" clip-rule="evenodd" d="M112.296 38.0114C111.855 39.7198 111.292 41.3516 110.607 42.9069C109.74 43.3744 108.66 43.6082 107.37 43.6082C106.642 43.6082 105.812 43.4898 104.881 43.253C103.95 43.0162 103.256 42.7794 102.799 42.5426V39.346H104.17L104.551 41.3249C104.737 41.6124 105.127 41.8661 105.719 42.086C106.312 42.3059 106.946 42.4158 107.623 42.4158C109.689 42.4158 110.721 41.6547 110.721 40.1325C110.721 39.439 110.434 38.8809 109.858 38.4581C109.282 38.0183 108.301 37.5363 106.913 37.012C105.541 36.5215 104.543 35.938 103.916 35.2615C103.29 34.5849 102.977 33.6801 102.977 32.5469C102.977 31.8196 103.197 31.1853 103.637 30.6441C104.094 30.1029 104.695 29.6885 105.44 29.401C106.202 29.0965 107.023 28.9443 107.903 28.9443C108.766 28.9443 109.486 29.0204 110.061 29.1727C110.654 29.3249 111.238 29.5109 111.813 29.7308V32.7498H110.569L110.112 30.8978C109.993 30.6779 109.689 30.4919 109.198 30.3397C108.724 30.1875 108.199 30.1113 107.623 30.1113C106.811 30.1113 106.151 30.2974 105.643 30.6695C105.135 31.0247 104.881 31.5067 104.881 32.1156C104.881 32.6568 105.008 33.105 105.262 33.4602C105.516 33.8154 105.829 34.1029 106.202 34.3228C106.574 34.5257 107.09 34.7625 107.75 35.0331L108.233 35.2361C109.198 35.6082 109.976 35.9634 110.569 36.3016C111.161 36.623 111.652 37.0543 112.042 37.5955C112.138 37.7258 112.223 37.8644 112.296 38.0114ZM61.919 29.3279C61.9419 34.6767 62.6921 39.3437 64.1694 43.3291H65.7675V42.2382L63.863 42.0606V34.8809C63.863 33.4433 63.7446 32.3016 63.5076 31.456C63.2875 30.5934 62.8812 29.9591 62.2887 29.5532C62.1753 29.4699 62.0521 29.3948 61.919 29.3279ZM39.1066 29.8695C39.1672 29.8307 39.2285 29.7929 39.2905 29.7562C40.3062 29.1642 41.3642 28.8682 42.4645 28.8682C44.5974 28.8682 46.1717 29.5617 47.1874 30.9486C48.22 32.3354 48.7363 34.1113 48.7363 36.2763C48.7363 37.7477 48.4232 39.0416 47.7968 40.1579C47.1874 41.2741 46.3749 42.1283 45.3592 42.7202C44.3604 43.3122 43.3109 43.6082 42.2106 43.6082C40.9981 43.6082 39.9634 43.3841 39.1064 42.9359C39.1066 42.8568 39.1066 42.7774 39.1066 42.6977V40.3151C39.1494 40.3996 39.1937 40.4825 39.2397 40.5638C39.9168 41.7139 40.9494 42.2889 42.3375 42.2889C43.641 42.2889 44.6482 41.79 45.3592 40.7921C46.0702 39.7942 46.4256 38.3397 46.4256 36.4285C46.4256 34.6018 46.0956 33.105 45.4354 31.938C44.7752 30.771 43.751 30.1875 42.3629 30.1875C41.0595 30.1875 40.0438 30.6864 39.3159 31.6843C39.2423 31.7875 39.1726 31.8957 39.1066 32.0087V29.8695ZM52.0755 43.3291C52.0828 42.9285 52.0894 42.5189 52.0953 42.1002L50.9385 42.2382V43.3291H52.0755ZM52.1327 29.168V30.8113L50.6846 30.4919V29.3502L52.1327 29.168ZM77.7868 43.3239C76.6987 43.0007 75.8293 42.402 75.1784 41.5278C74.1627 40.1409 73.6549 38.365 73.6549 36.2001C73.6549 34.7287 73.9596 33.4348 74.569 32.3185C75.0285 31.4996 75.5882 30.8218 76.2481 30.2851C76.2613 31.2726 76.2901 32.2275 76.3344 33.1499C76.0885 33.958 75.9655 34.924 75.9655 36.0479C75.9655 37.8915 76.2956 39.3968 76.9558 40.5638C77.041 40.7084 77.1317 40.8439 77.2281 40.9703C77.3935 41.7985 77.5798 42.583 77.7868 43.3239ZM97.3043 43.2481C97.4443 42.7821 97.5761 42.3012 97.6996 41.8053C97.7232 41.7975 97.7468 41.7896 97.7704 41.7815C98.5152 41.5278 99.0908 41.2234 99.497 40.8682L99.9033 41.8069C99.4124 42.3143 98.693 42.7456 97.745 43.1008C97.5983 43.1541 97.4514 43.2032 97.3043 43.2481ZM98.6863 36.124C98.8826 34.3598 99.0078 32.4659 99.0617 30.4421C99.7483 31.286 100.122 32.4358 100.183 33.8915C100.183 34.9401 100.132 35.6843 100.03 36.124H98.6863Z" fill="#020307"/>
<path fill-rule="evenodd" clip-rule="evenodd" d="M110.607 42.9069C110.809 42.7981 110.999 42.6767 111.178 42.5426C112.143 41.8154 112.626 40.8259 112.626 39.5744C112.626 38.9769 112.516 38.4559 112.296 38.0114C111.855 39.7198 111.292 41.3516 110.607 42.9069ZM61.9189 29.3279C61.9419 34.6767 62.692 39.3437 64.1693 43.3291H60.105V42.2382L61.8063 42.0606V34.8555C61.8063 33.79 61.7301 32.9528 61.5777 32.3439C61.4423 31.735 61.163 31.2784 60.7398 30.9739C60.3335 30.6526 59.7326 30.4919 58.937 30.4919C58.2598 30.4919 57.5235 30.661 56.7279 30.9993C55.9492 31.3376 55.272 31.735 54.6965 32.1917V42.0352L56.5501 42.2382V43.3291H52.0755C52.0828 42.9285 52.0894 42.5189 52.0953 42.1002L52.6397 42.0352V30.9232L52.1327 30.8113V29.168L53.9093 28.9443H53.9855L54.468 29.3503V30.4665L54.4426 31.1008C55.0689 30.5596 55.8984 30.0606 56.931 29.6039C57.9636 29.1473 58.92 28.919 59.8003 28.919C60.6702 28.919 61.3764 29.0553 61.9189 29.3279ZM39.1064 42.9359C38.4559 42.5957 37.9078 42.1263 37.4622 41.5278C36.4465 40.1409 35.9387 38.365 35.9387 36.2001C35.9387 34.7287 36.2434 33.4348 36.8528 32.3185C37.4403 31.2716 38.1915 30.4552 39.1066 29.8695V32.0087C38.5351 32.988 38.2494 34.3345 38.2494 36.0479C38.2494 37.7631 38.5351 39.1855 39.1066 40.3151V42.6977C39.1066 42.7774 39.1065 42.8568 39.1064 42.9359ZM99.0617 30.4421C98.9824 30.3447 98.899 30.2514 98.8114 30.1621C97.9819 29.2995 96.8139 28.8682 95.3073 28.8682C94.0716 28.8682 92.9543 29.1811 91.9556 29.8069C90.9737 30.4158 90.2035 31.2784 89.6449 32.3946C89.0863 33.5109 88.807 34.7879 88.807 36.2255C88.807 38.4581 89.3317 40.2509 90.3813 41.604C91.4477 42.9401 92.9628 43.6082 94.9264 43.6082C95.7251 43.6082 96.5177 43.4881 97.3043 43.2481C97.4443 42.7821 97.576 42.3012 97.6996 41.8053C96.9794 42.0431 96.2751 42.1621 95.5866 42.1621C94.1308 42.1621 92.9966 41.604 92.1841 40.4877C91.3885 39.3545 90.9907 37.8999 90.9907 36.124H98.6863C98.8826 34.3598 99.0077 32.4659 99.0617 30.4421ZM76.248 30.2851C76.2613 31.2726 76.2901 32.2275 76.3343 33.1499C76.5066 32.5839 76.7391 32.0953 77.032 31.6843C77.7599 30.6864 78.7756 30.1875 80.079 30.1875C81.4671 30.1875 82.4913 30.771 83.1515 31.938C83.8117 33.105 84.1418 34.6018 84.1418 36.4285C84.1418 38.3397 83.7863 39.7942 83.0753 40.7921C82.3643 41.79 81.3571 42.2889 80.0536 42.2889C78.8401 42.2889 77.8982 41.8494 77.2281 40.9703C77.3935 41.7985 77.5798 42.583 77.7868 43.3239C78.4249 43.5134 79.1382 43.6082 79.9267 43.6082C81.027 43.6082 82.0765 43.3122 83.0753 42.7202C84.091 42.1283 84.9035 41.2741 85.5129 40.1579C86.1393 39.0416 86.4524 37.7477 86.4524 36.2763C86.4524 34.1113 85.9361 32.3355 84.9035 30.9486C83.8878 29.5617 82.3135 28.8682 80.1806 28.8682C79.0803 28.8682 78.0223 29.1642 77.0066 29.7562C76.7405 29.9139 76.4877 30.0902 76.248 30.2851ZM127.198 23.9211L129.458 24.1494V42.0606L127.858 42.2382V43.3291H133.368V42.2382L131.489 42.0352V32.1663C132.082 31.7097 132.767 31.3207 133.546 30.9993C134.324 30.661 135.052 30.4919 135.729 30.4919C136.542 30.4919 137.16 30.6441 137.583 30.9486C138.006 31.253 138.286 31.7097 138.421 32.3185C138.573 32.9274 138.65 33.7731 138.65 34.8555V42.0352L136.872 42.2382V43.3291H142.56V42.2382L140.706 42.0352V34.8809C140.706 33.4264 140.588 32.2763 140.351 31.4306C140.114 30.568 139.699 29.9338 139.107 29.5278C138.514 29.1219 137.685 28.919 136.618 28.919C135.67 28.919 134.705 29.1473 133.724 29.6039C132.742 30.0606 131.98 30.5342 131.438 31.0247L131.489 28.919V22.8809L131.007 22.5511H130.956L127.198 22.9824V23.9211ZM2.94548 25.1388C2.94548 26.1029 3.40254 26.5849 4.31665 26.5849H4.34204C4.86681 26.5849 5.26462 26.4412 5.53547 26.1536C5.82325 25.8492 5.96713 25.4348 5.96713 24.9105C5.96713 24.5046 5.8571 24.1663 5.63704 23.8957C5.41697 23.6082 5.05302 23.4644 4.54518 23.4644C4.05427 23.4644 3.66492 23.6251 3.37714 23.9464C3.08937 24.2509 2.94548 24.6483 2.94548 25.1388ZM4.90067 28.9443L1.37117 29.3503V30.568L3.37714 31.0247L3.40254 42.6949C3.40254 44.2171 3.25865 45.4433 2.97087 46.3735C2.68309 47.3037 2.17525 47.8788 1.44735 48.0987C1.15957 48.2001 0.880258 48.2678 0.60941 48.3016C0.338561 48.3524 0.135424 48.3693 0 48.3524L0.101568 49.3925C0.16928 49.4433 0.372417 49.4771 0.710978 49.494C1.06647 49.5109 1.34578 49.5109 1.54892 49.494C4.13891 49.2572 5.4339 47.1515 5.4339 43.1769V29.3503L4.95145 28.9443H4.90067ZM11.7976 36.0733C10.1725 36.8006 9.35995 37.9845 9.35995 39.6251C9.35995 40.9274 9.75776 41.9168 10.5534 42.5934C11.3659 43.2699 12.3816 43.6082 13.6004 43.6082C14.5145 43.6082 15.3271 43.4052 16.0381 42.9993C16.766 42.5765 17.4346 42.0944 18.044 41.5532V42.4919C18.044 42.9486 18.1202 43.2361 18.2726 43.3545C18.4249 43.4898 18.7042 43.5574 19.1105 43.5574C19.7538 43.5574 20.5409 43.4306 21.472 43.1769V42.2382H19.8977V33.8661C19.8977 32.6653 19.7453 31.7097 19.4406 30.9993C19.1528 30.2889 18.6704 29.7731 17.9933 29.4517C17.3331 29.1304 16.4274 28.9697 15.2763 28.9697C14.5653 28.9697 13.829 29.0881 13.0672 29.3249C12.3054 29.5617 11.6283 29.8323 11.0358 30.1367C10.4433 30.4412 10.054 30.6779 9.86779 30.8471L10.4264 31.9634C11.0866 31.5913 11.7637 31.2784 12.4578 31.0247C13.1688 30.7541 13.9559 30.6187 14.8192 30.6187C15.6149 30.6187 16.2327 30.7371 16.6729 30.9739C17.113 31.1938 17.4177 31.5574 17.587 32.0648C17.7732 32.5553 17.8663 33.2319 17.8663 34.0944V34.8809C15.4456 34.9316 13.4227 35.3291 11.7976 36.0733ZM16.0635 41.6547C15.4033 41.9591 14.8362 42.1114 14.3622 42.1114C13.5158 42.1114 12.8471 41.8999 12.3562 41.4771C11.8653 41.0374 11.6198 40.3355 11.6198 39.3714C11.6198 38.3735 12.1446 37.5786 13.1942 36.9866C14.2606 36.3946 15.818 36.0902 17.8663 36.0733V40.5638C17.3246 40.9866 16.7236 41.3503 16.0635 41.6547ZM25.424 41.3249C25.6102 41.6124 25.9996 41.8661 26.592 42.086C27.1845 42.3059 27.8193 42.4158 28.4964 42.4158C30.5617 42.4158 31.5943 41.6547 31.5943 40.1325C31.5943 39.439 31.3065 38.8809 30.7309 38.4581C30.1554 38.0183 29.1736 37.5363 27.7855 37.012C26.4143 36.5215 25.4155 35.938 24.7892 35.2615C24.1629 34.5849 23.8497 33.6801 23.8497 32.5469C23.8497 31.8196 24.0698 31.1853 24.5099 30.6441C24.9669 30.1029 25.5679 29.6885 26.3127 29.401C27.0745 29.0965 27.8955 28.9443 28.7758 28.9443C29.6391 28.9443 30.3585 29.0204 30.9341 29.1727C31.5266 29.3249 32.1106 29.5109 32.6861 29.7308V32.7498H31.4419L30.9849 30.8978C30.8664 30.6779 30.5617 30.4919 30.0707 30.3397C29.5968 30.1875 29.072 30.1113 28.4964 30.1113C27.6839 30.1113 27.0237 30.2974 26.5159 30.6695C26.008 31.0247 25.7541 31.5067 25.7541 32.1156C25.7541 32.6568 25.8811 33.105 26.135 33.4602C26.3889 33.8154 26.7021 34.1029 27.0745 34.3228C27.4469 34.5257 27.9632 34.7625 28.6234 35.0331L29.1059 35.2361C30.0707 35.6082 30.8494 35.9634 31.4419 36.3016C32.0344 36.623 32.5253 37.0543 32.9147 37.5955C33.304 38.1198 33.4987 38.7794 33.4987 39.5744C33.4987 40.8259 33.0162 41.8154 32.0513 42.5426C31.1034 43.253 29.8338 43.6082 28.2425 43.6082C27.5146 43.6082 26.6851 43.4898 25.7541 43.253C24.8231 43.0162 24.129 42.7794 23.6719 42.5426V39.346H25.0431L25.424 41.3249ZM97.8973 34.9316C97.9481 34.5765 97.9735 34.2044 97.9735 33.8154C97.9566 32.6991 97.6857 31.8111 97.1609 31.1515C96.6531 30.4919 95.8659 30.1621 94.7995 30.1621C92.4803 30.1621 91.2192 31.7519 91.0161 34.9316H97.8973ZM114.786 36.3777C114.786 35.0078 115.049 33.7562 115.574 32.623C116.115 31.4729 116.911 30.5596 117.96 29.883C119.027 29.2065 120.322 28.8682 121.845 28.8682C122.506 28.8682 123.149 28.9528 123.775 29.1219C124.402 29.2741 124.943 29.4433 125.4 29.6293L125.299 33.2572H124.029L123.496 30.8217C123.394 30.3143 122.666 30.0606 121.312 30.0606C119.992 30.0606 118.934 30.568 118.138 31.5828C117.359 32.5976 116.97 33.9845 116.97 35.7435C116.97 37.8407 117.393 39.4306 118.24 40.513C119.086 41.5955 120.186 42.1367 121.541 42.1367C122.252 42.1367 122.937 42.0183 123.597 41.7815C124.275 41.5448 124.833 41.2741 125.273 40.9697L125.68 41.8069C125.189 42.2974 124.512 42.7202 123.648 43.0754C122.785 43.4306 121.93 43.6082 121.084 43.6082C119.746 43.6082 118.604 43.2953 117.656 42.6695C116.708 42.0268 115.988 41.1642 115.497 40.0818C115.023 38.9824 114.786 37.7477 114.786 36.3777Z" fill="white" style="mix-blend-mode:difference"/>
</svg>
